<!-- RECRAFT VECTORIZE from logo/current/icon-512.png -->
<svg version="1.1" xmlns="http://www.w3.org/2000/svg" style="display: block;" viewBox="0 0 2048 2048" width="512" height="512" preserveAspectRatio="none">
<path transform="translate(0,0)" fill="rgb(33,29,28)" d="M 301.245 0 L 1741.59 0 C 1746.14 2.94902 1775.73 7.89747 1783.83 10.0291 C 1797.61 13.7432 1811.14 18.3384 1824.34 23.7864 C 1919.3 62.4945 2006.56 160.822 2035.62 259.256 C 2040.19 274.748 2043.18 295.633 2048 309.254 L 2048 1745.77 C 2044.24 1755.67 2042.55 1770.23 2040.56 1780.99 C 2038.36 1792.48 2035.4 1803.8 2031.69 1814.89 C 2002.58 1902.1 1939.63 1973.93 1857 2014.25 C 1838.55 2023.19 1819.32 2030.42 1799.55 2035.87 C 1790.68 2038.33 1752.74 2045.66 1748.91 2048 L 304.23 2048 C 298.686 2045.26 275.275 2040.65 267.51 2038.8 C 256.427 2036.06 245.516 2032.67 234.837 2028.63 C 128.324 1988.04 38.6245 1886.38 8.84597 1776.59 C 6.12354 1766.55 4.39884 1747.61 0 1739.02 L 0 302.142 C 2.39796 297.709 6.53025 272.889 7.85122 266.492 C 9.90552 256.324 12.4458 246.26 15.4634 236.335 C 45.2096 139.716 126.347 54.0467 221.784 20.378 C 233.878 16.1051 246.18 12.4485 258.644 9.42212 C 267.289 7.36121 295.866 3.38455 301.245 0 z"/>
<path transform="translate(0,0)" fill="rgb(218,112,0)" d="M 1003.12 288.276 C 1409.53 276.703 1748.33 596.854 1759.76 1003.26 C 1771.19 1409.67 1450.92 1748.36 1044.5 1759.64 C 638.295 1770.93 299.813 1450.85 288.388 1044.64 C 276.964 638.438 596.92 299.844 1003.12 288.276 z"/>
<path transform="translate(0,0)" fill="rgb(33,29,28)" d="M 1011.59 480.284 C 1312.04 473.393 1561.12 711.524 1567.73 1011.98 C 1574.34 1312.44 1335.97 1561.3 1035.5 1567.62 C 735.437 1573.94 486.987 1335.96 480.386 1035.9 C 473.786 735.84 711.532 487.166 1011.59 480.284 z"/>
<path transform="translate(0,0)" fill="rgb(218,112,0)" d="M 1011.7 768.343 C 1153.04 761.518 1273.08 870.693 1279.67 1012.04 C 1286.25 1153.39 1176.86 1273.24 1035.51 1279.58 C 894.493 1285.9 774.993 1176.84 768.428 1035.84 C 761.864 894.84 870.714 775.152 1011.7 768.343 z"/>
</svg>