<!-- RECRAFT VECTORIZE from logo/current/icon-from-svg-512.png -->
<svg version="1.1" xmlns="http://www.w3.org/2000/svg" style="display: block;" viewBox="0 0 2048 2048" width="512" height="512" preserveAspectRatio="none">
<path transform="translate(0,0)" fill="rgb(26,22,21)" d="M 411.214 0 L 1632.59 0 C 1641.14 3.4556 1658.34 4.10511 1668.03 5.90149 C 1688.1 9.75736 1707.86 15.0433 1727.17 21.7188 C 1849.11 64.5314 1951.56 164.546 2007.08 280.142 C 2021.6 310.062 2032.55 341.589 2039.68 374.071 C 2042.29 386.346 2044.99 408.151 2048 418.35 L 2048 1636.82 L 2047.72 1638.03 C 2044.59 1651.97 2043.17 1668.32 2040.58 1682.59 C 2038.1 1696.3 2035.21 1708.93 2031.44 1722.33 C 2001.57 1827.24 1934.51 1917.69 1842.81 1976.76 C 1797.13 2006.27 1746.48 2027.26 1693.33 2038.72 C 1683.1 2040.94 1646.18 2045.6 1640.77 2048 L 413.577 2048 C 408.388 2045.98 378.407 2041.83 369.128 2039.85 C 334.156 2032.16 300.311 2020.03 268.418 2003.75 C 156.898 1947.07 62.7698 1839.13 21.4599 1721.04 C 15.2412 1703.04 10.3047 1684.63 6.68752 1665.93 C 4.7863 1655.73 3.32934 1639.86 0 1630.52 L 0 411.327 C 2.19942 404.906 6.10524 372.804 8.13538 362.133 C 15.9583 320.851 29.6976 280.914 48.9286 243.556 C 104.845 134.404 203.049 52.9368 320.651 18.1439 C 344.264 11.0913 367.969 6.11309 392.43 3.37854 C 398.472 2.70314 405.517 2.0264 411.214 0 z"/>
<path transform="translate(0,0)" fill="rgb(217,112,0)" d="M 1006.1 460.285 C 1317.51 450.379 1577.95 694.863 1587.73 1006.28 C 1597.51 1317.69 1352.92 1578.03 1041.51 1587.68 C 730.269 1597.33 470.107 1352.91 460.333 1041.68 C 450.559 730.448 694.871 470.186 1006.1 460.285 z"/>
<path transform="translate(0,0)" fill="rgb(26,22,21)" d="M 1009.4 556.303 C 1267.72 548.224 1483.66 751.103 1491.7 1009.42 C 1499.74 1267.74 1296.83 1483.65 1038.51 1491.65 C 780.246 1499.65 564.392 1296.79 556.355 1038.53 C 548.318 780.268 751.142 564.381 1009.4 556.303 z"/>
<path transform="translate(0,0)" fill="rgb(217,112,0)" d="M 1015.98 844.298 C 1115.14 839.851 1199.16 916.569 1203.72 1015.72 C 1208.28 1114.88 1131.65 1198.98 1032.51 1203.65 C 933.2 1208.33 848.932 1131.56 844.366 1032.24 C 839.799 932.933 916.667 848.752 1015.98 844.298 z"/>
</svg>