<!-- RECRAFT VECTORIZE from logo/current/icon.png -->
<svg version="1.1" xmlns="http://www.w3.org/2000/svg" style="display: block;" viewBox="0 0 1024 1024" width="256" height="256" preserveAspectRatio="none">
<path transform="translate(0,0)" fill="rgb(33,29,28)" d="M 143.026 0 L 876.814 0 C 886.52 5.9368 907.586 8.48561 920.386 15.2184 C 961.19 36.6816 992.458 69.2359 1011.68 111.24 C 1016.82 122.453 1019.3 136.677 1024 148.251 L 1024 880.676 C 1019.5 892.523 1017.47 905.737 1012.95 917.142 C 995.977 959.172 963.236 992.895 921.726 1011.1 C 914.037 1014.55 886.175 1021.54 882.879 1024 L 144.959 1024 C 134.457 1017.54 111.959 1014.26 97.3122 1005.68 C 59.8174 984.974 31.5378 952.269 12.8218 914.088 C 7.82332 903.891 5.54963 886.261 0 877.111 L 0 144.137 C 3.10272 139.587 8.02798 115.161 10.9576 107.824 C 28.3588 63.9604 63.1513 28.6973 107.013 11.1298 C 117.956 6.74716 133.313 5.00661 143.026 0 z"/>
<path transform="translate(0,0)" fill="rgb(218,112,0)" d="M 491.784 144.576 C 694.818 133.381 868.43 289.017 879.406 492.064 C 890.383 695.11 734.56 868.555 531.502 879.313 C 328.752 890.054 155.629 734.52 144.669 531.782 C 133.709 329.044 289.058 155.753 491.784 144.576 z"/>
<path transform="translate(0,0)" fill="rgb(33,29,28)" d="M 500.995 240.46 C 650.849 234.373 777.296 350.854 783.504 500.704 C 789.713 650.553 673.334 777.095 523.489 783.424 C 373.473 789.761 246.756 673.22 240.54 523.198 C 234.325 373.177 350.969 246.554 500.995 240.46 z"/>
<path transform="translate(0,0)" fill="rgb(218,112,0)" d="M 505.817 384.306 C 576.26 380.883 636.158 435.177 639.649 505.617 C 643.139 576.056 588.903 636.006 518.466 639.564 C 447.935 643.126 387.887 588.801 384.391 518.266 C 380.896 447.731 435.279 387.734 505.817 384.306 z"/>
</svg>