<!-- RECRAFT VECTORIZE via fal-ai/recraft/vectorize from icon-512.png -->
<svg version="1.1" xmlns="http://www.w3.org/2000/svg" style="display: block;" viewBox="0 0 2048 2048" width="512" height="512" preserveAspectRatio="none">
<path transform="translate(0,0)" fill="rgb(33,28,26)" d="M 307.377 0 L 1736.64 0 C 1744.99 3.33044 1758.57 4.36038 1767.74 6.28564 C 1876.23 29.0569 1970.61 114.363 2017.33 213.212 C 2027.35 233.978 2035.09 255.768 2040.41 278.202 C 2042.68 287.995 2045.39 306.03 2048 314.228 L 2048 1740.45 C 2043.63 1755.69 2042.92 1772.96 2038.79 1788.4 C 2037.04 1794.94 2035.45 1801.4 2033.5 1807.9 C 2008.17 1889.75 1953.03 1959.11 1879 2002.24 C 1849.64 2019.41 1817.8 2031.96 1784.62 2039.45 C 1776.72 2041.25 1746.99 2046.06 1742.8 2048 L 309.582 2048 C 304.14 2045.87 281.22 2041.94 273.46 2040.17 C 250.78 2034.89 228.8 2026.97 207.976 2016.55 C 120.403 1973.69 49.7838 1892.36 16.581 1800.97 C 12.1902 1788.56 8.67267 1775.87 6.05435 1762.97 C 4.35073 1754.44 2.9482 1742.5 0 1734.58 L 0 307.589 C 2.47575 300.913 5.35802 278.539 7.16353 269.755 C 12.5347 243.101 21.2672 217.237 33.1516 192.782 C 79.4306 96.8383 169.125 25.9894 274.198 6.24149 C 283.5 4.49331 299.076 3.28176 307.377 0 z"/>
<path transform="translate(0,0)" fill="rgb(217,112,0)" d="M 1003.94 288.271 C 1410.39 277.169 1748.83 597.749 1759.75 1004.2 C 1770.68 1410.64 1449.96 1748.95 1043.51 1759.7 C 637.3 1770.45 299.247 1449.96 288.325 1043.76 C 277.403 637.557 597.747 299.366 1003.94 288.271 z"/>
<path transform="translate(0,0)" fill="rgb(33,28,26)" d="M 1008.61 480.283 C 1309.07 471.761 1559.48 708.562 1567.74 1009.03 C 1576 1309.49 1338.98 1559.7 1038.51 1567.69 C 738.404 1575.68 488.576 1339.02 480.325 1038.92 C 472.074 738.828 708.522 488.794 1008.61 480.283 z"/>
<path transform="translate(0,0)" fill="rgb(217,112,0)" d="M 1011.5 768.311 C 1152.74 761.397 1272.82 870.326 1279.67 1011.57 C 1286.51 1152.81 1177.52 1272.84 1036.28 1279.61 C 895.132 1286.39 775.203 1177.49 768.364 1036.35 C 761.524 895.202 870.361 775.22 1011.5 768.311 z"/>
</svg>