<!-- RECRAFT VECTORIZE from logo/current/wordmark-from-svg.png -->
<svg version="1.1" xmlns="http://www.w3.org/2000/svg" style="display: block;" viewBox="0 0 2048 426" width="1232" height="256" preserveAspectRatio="none">
<path transform="translate(0,0)" fill="rgb(26,25,36)" d="M 0 91.7454 C 5.18673 80.9923 6.22738 73.0694 12.9588 62.5627 C 38.9193 22.0425 76.1437 26.1522 118.089 26.295 L 188.486 26.3568 L 256.711 26.2813 C 269.993 26.2732 283.169 26.28 296.251 26.768 C 329.402 28.0048 358.485 56.2908 369.015 86.3345 C 374.46 101.87 372.749 130.675 372.711 148.124 L 372.594 223.195 L 372.733 287.498 C 372.752 298.853 373.207 314.628 372.193 325.646 C 371.278 335.845 368.521 345.793 364.054 355.008 C 352.661 378.359 327.919 397.573 301.395 399.191 C 286.57 400.096 271.079 399.581 256.168 399.564 L 180.787 399.616 L 112.396 399.645 C 98.4793 399.645 77.3265 400.59 64.5748 398.089 C 39.6443 393.201 16.5881 371.355 6.90019 348.433 C 5.64761 345.47 1.33714 333.825 0 331.884 L 0 91.7454 z"/>
<path transform="translate(0,0)" fill="rgb(218,112,0)" d="M 171.026 111.627 C 226.979 103.265 279.124 141.824 287.523 197.772 C 295.922 253.719 257.397 305.89 201.455 314.326 C 145.461 322.769 93.231 284.201 84.8244 228.201 C 76.4177 172.201 115.021 119.997 171.026 111.627 z"/>
<path transform="translate(0,0)" fill="rgb(26,25,36)" d="M 178.495 128.339 C 225.116 124.106 266.381 158.371 270.79 204.976 C 275.198 251.58 241.089 292.975 194.502 297.559 C 147.665 302.168 106 267.836 101.568 220.982 C 97.1364 174.128 131.625 132.594 178.495 128.339 z"/>
<path transform="translate(0,0)" fill="rgb(218,112,0)" d="M 178.218 181.445 C 195.575 177.069 213.207 187.533 217.681 204.864 C 222.155 222.196 211.791 239.887 194.485 244.459 C 177.04 249.068 159.176 238.602 154.666 221.132 C 150.156 203.661 160.722 185.856 178.218 181.445 z"/>
<path transform="translate(0,0)" fill="rgb(26,25,36)" d="M 1192.57 0 L 1256.68 0 C 1257.23 10.9602 1257.8 20.6109 1257.07 31.62 C 1262.18 27.656 1264.76 22.3221 1268.66 17.0809 C 1274.36 9.42196 1278.6 5.64348 1286.07 0 L 1382.51 0 C 1384.93 2.75309 1389.06 5.50382 1391.93 8.18988 C 1435.41 50.8111 1432.85 127.487 1416.94 182.919 C 1398.25 248.028 1309.35 266.882 1266.83 214.486 C 1264.02 211.017 1262.26 203.603 1257.74 201.951 C 1255.72 206.258 1258.25 207.009 1258.38 211.248 C 1259.59 252.618 1258.91 295.227 1259.11 336.544 C 1238.71 335.696 1215.24 336.146 1194.59 336.121 L 1194.75 172.945 C 1194.78 114.089 1195.19 58.9186 1192.57 0 z M 1316.26 198.963 C 1365.36 189.478 1363.34 118.586 1356.73 80.4094 C 1351.38 49.5046 1334.99 31.7416 1302.19 34.3019 C 1265.15 43.9203 1259.59 78.2244 1258.43 111.868 C 1257.08 150.758 1266.61 202.602 1316.26 198.963 z"/>
<path transform="translate(0,0)" fill="rgb(26,25,36)" d="M 771.127 0 L 839.32 0 C 848.743 24.2696 858.644 58.4504 866.821 83.8833 C 876.268 113.267 891.249 154.687 897.359 183.749 C 901.71 175.42 905.405 159.659 908.282 149.85 L 923.852 97.5534 L 942.82 33.8245 C 945.604 24.4665 950.643 9.21701 952.521 0 L 1019.81 0 C 999.969 56.8888 976.12 114.932 955.453 171.829 C 941.233 208.15 929.437 246.243 911.868 281.057 C 894.835 314.811 871.647 335.915 832.596 336.025 C 817.581 336.067 803.229 335.437 788.751 332.18 C 790.781 320.922 789.832 298.569 789.505 286.833 C 837.054 292.166 848.772 282.09 865.68 237.755 C 863.466 227.544 852.569 202.574 848.071 191.531 L 818.465 117.863 L 789.304 44.7126 C 783.765 30.634 777.602 13.4356 771.127 0 z"/>
<path transform="translate(0,0)" fill="rgb(26,25,36)" d="M 1482.11 0 L 1547.09 0 C 1546.97 15.2744 1546.78 28.3181 1542.99 43.3735 C 1560.59 20.3429 1554.31 19.7009 1578.85 0 L 1670.58 0 C 1674.26 3.63143 1678.43 6.74393 1682.12 10.2799 C 1710.81 37.8076 1705.94 97.6215 1705.92 133.84 C 1705.72 169.066 1705.8 204.292 1706.14 239.517 C 1684.25 239.64 1662.36 239.561 1640.48 239.279 C 1641.18 234.088 1641.22 227.645 1641.27 222.327 L 1641.36 141.392 C 1641.36 107.245 1648.37 36.3061 1598.18 38.0725 C 1542.14 40.0449 1547.01 109.472 1547.07 147.225 L 1547.22 239.867 C 1525.56 238.938 1503.53 239.768 1481.75 239.294 C 1483.74 161.546 1481.77 78.387 1482.11 0 z"/>
<path transform="translate(0,0)" fill="rgb(26,25,36)" d="M 479.628 0 L 545.571 0 C 545.683 1.25145 545.844 2.49793 546.056 3.73645 C 548.935 20.5076 560.001 29.6468 575.321 35.2615 C 632.386 56.3567 728.75 50.8375 742.355 127.42 C 753.873 192.251 712.343 232.493 651.027 240.926 C 606.768 247.013 542.492 246.653 504.944 219.71 C 483.765 204.262 469.431 181.176 464.978 155.342 C 486.244 152.856 508.605 147.444 531.009 144.83 C 541.094 184.858 573.049 192.496 610.705 192.725 C 635.844 192.879 679.195 185.203 678.347 151.612 C 675.842 113.072 625.713 108.341 596.605 101.405 C 532.602 86.154 481.149 77.1073 479.628 0 z"/>
<path transform="translate(0,0)" fill="rgb(26,25,36)" d="M 1749.47 0 L 1820.11 0 C 1824.07 8.22049 1863.64 68.5211 1867.92 71.4383 L 1869.18 71.3492 C 1877.4 52.8277 1893.38 33.2606 1904.01 15.4986 C 1906.14 11.9413 1912.6 3.15487 1914.1 0 L 1983.84 0 C 1980.51 7.02427 1969.95 20.3536 1965.02 27.1213 L 1925.74 80.909 C 1919.5 89.429 1908.59 103.538 1903.61 112.212 C 1920.77 133.504 1939.56 162.991 1956.16 185.721 C 1966.24 199.524 1986.27 226.236 1993.79 239.363 C 1974.12 240.514 1944.38 239.431 1923.29 239.739 C 1914.12 226.532 1871.08 160.724 1868.32 150.47 C 1862.38 157.318 1855.57 169.78 1850.18 177.681 C 1836.91 197.158 1823.32 220.844 1809.25 239.429 C 1786.97 239.707 1762.13 238.605 1740.25 239.889 C 1770.77 198.697 1800.01 154.165 1830.68 112.457 C 1812.31 88.9144 1795.52 62.5642 1777.3 38.6705 C 1767.94 26.3904 1758.19 12.7612 1749.47 0 z"/>
<path transform="translate(0,0)" fill="rgb(26,25,36)" d="M 1060.61 0 L 1125.89 0 C 1125.18 77.1805 1124.65 162.748 1126.04 239.7 C 1105.13 239.151 1080.04 240.498 1060 239.05 C 1061.37 211.434 1060.72 180.261 1060.72 152.264 L 1060.61 0 z"/>
</svg>