<?xml version="1.0" encoding="UTF-8"?>
<!-- REVERSE-ENGINEERED v0: icon + Inter-like bold word -->
<svg xmlns="http://www.w3.org/2000/svg" viewBox="0 0 308.2 64" role="img" aria-label="Sylphx">
  <svg x="0" y="4" width="56" height="56" viewBox="0 0 512 512">
    <rect width="512" height="512" rx="112" fill="#1A1414"/>
    <circle cx="256" cy="256" r="129" fill="none" stroke="#D87000" stroke-width="24"/>
    <circle cx="256" cy="256" r="45" fill="#D87000"/>
  </svg>
  <g transform="translate(68, 35.9) scale(0.03407)" fill="#1A1A2E">
    <path transform="translate(0,0)" d="M1286 -406Q1286 -310 1251.0 -231.5Q1216 -153 1142.5 -97.0Q1069 -41 954.5 -10.5Q840 20 682 20Q542 20 435.0 -5.0Q328 -30 251.5 -79.0Q175 -128 127.5 -200.5Q80 -273 59 -367L344 -414Q356 -367 379.0 -328.0Q402 -289 442.5 -260.5Q483 -232 543.5 -216.5Q604 -201 690 -201Q840 -201 919.5 -246.5Q999 -292 999 -389Q999 -447 967.0 -484.0Q935 -521 882.0 -545.0Q829 -569 760.0 -585.0Q691 -601 616 -616Q556 -630 496.0 -645.0Q436 -660 381.5 -681.0Q327 -702 280.0 -731.0Q233 -760 198.5 -802.5Q164 -845 144.5 -902.0Q125 -959 125 -1036Q125 -1141 167.0 -1216.0Q209 -1291 283.5 -1338.5Q358 -1386 461.0 -1408.0Q564 -1430 686 -1430Q824 -1430 922.5 -1408.5Q1021 -1387 1087.5 -1343.0Q1154 -1299 1192.5 -1232.5Q1231 -1166 1249 -1077L963 -1038Q941 -1129 873.5 -1175.0Q806 -1221 680 -1221Q602 -1221 550.5 -1207.5Q499 -1194 468.5 -1171.0Q438 -1148 425.0 -1117.5Q412 -1087 412 -1053Q412 -1001 437.0 -967.5Q462 -934 507.0 -911.5Q552 -889 614.5 -873.5Q677 -858 752 -842Q818 -828 883.0 -812.5Q948 -797 1007.0 -776.0Q1066 -755 1117.0 -725.0Q1168 -695 1205.5 -651.5Q1243 -608 1264.5 -548.0Q1286 -488 1286 -406Z"/><path transform="translate(1386.48,0)" d="M584 -241 834 -1082H1128L700 57Q619 254 532 336Q437 425 283 425Q182 425 106 412V212Q159 220 201.5 220.0Q244 220 276.0 211.0Q308 202 334 181Q385 139 426 37L444 -11L16 -1082H313Z"/><path transform="translate(2545.96,0)" d="M143 0V-1484H424V0Z"/><path transform="translate(3135.44,0)" d="M1167 -546Q1167 -423 1142.5 -319.0Q1118 -215 1067.0 -140.0Q1016 -65 937.5 -22.5Q859 20 752 20Q704 20 656.5 10.0Q609 0 566.0 -22.5Q523 -45 486.5 -81.5Q450 -118 424 -172H418Q419 -167 420.0 -147.0Q421 -127 422.0 -100.5Q423 -74 423.5 -44.5Q424 -15 424 10V425H143V-833Q143 -916 140.5 -981.0Q138 -1046 135 -1082H408Q410 -1075 412.5 -1055.0Q415 -1035 416.5 -1009.0Q418 -983 419.0 -955.0Q420 -927 420 -906H424Q475 -1013 564.0 -1059.0Q653 -1105 770 -1105Q873 -1105 948.0 -1063.0Q1023 -1021 1071.5 -947.0Q1120 -873 1143.5 -770.5Q1167 -668 1167 -546ZM874 -546Q874 -731 818.0 -820.5Q762 -910 651 -910Q609 -910 567.5 -892.5Q526 -875 493.5 -832.5Q461 -790 440.5 -718.5Q420 -647 420 -538Q420 -432 440.0 -361.5Q460 -291 492.5 -249.0Q525 -207 566.0 -189.5Q607 -172 649 -172Q703 -172 745.0 -193.5Q787 -215 815.5 -260.5Q844 -306 859.0 -377.0Q874 -448 874 -546Z"/><path transform="translate(4406.92,0)" d="M420 -866Q477 -990 563.0 -1046.0Q649 -1102 768 -1102Q866 -1102 933.5 -1070.0Q1001 -1038 1043.5 -982.0Q1086 -926 1105.0 -850.0Q1124 -774 1124 -686V0H844V-606Q844 -669 834.0 -721.5Q824 -774 801.0 -811.5Q778 -849 741.0 -870.0Q704 -891 651 -891Q600 -891 558.5 -868.5Q517 -846 487.0 -804.5Q457 -763 440.5 -705.5Q424 -648 424 -579V0H143V-1484H424V-1079Q424 -1047 423.0 -1014.5Q422 -982 420.5 -953.5Q419 -925 418.0 -902.0Q417 -879 416 -866Z"/><path transform="translate(5678.4,0)" d="M819 0 567 -392 313 0H14L410 -559L33 -1082H336L567 -728L797 -1082H1102L725 -562L1124 0Z"/>
  </g>
</svg>
